<?xml version="1.0" encoding="UTF-8" standalone="no"?>
<svg
   version="1.1"
   id="Layer_1"
   x="0px"
   y="0px"
   width="697.72449"
   viewBox="0 0 697.72449 630.11566"
   enable-background="new 0 0 1024 1024"
   xml:space="preserve"
   sodipodi:docname="file (1).svg"
   height="630.11566"
   inkscape:version="1.3.2 (091e20e, 2023-11-25)"
   xmlns:inkscape="http://www.inkscape.org/namespaces/inkscape"
   xmlns:sodipodi="http://sodipodi.sourceforge.net/DTD/sodipodi-0.dtd"
   xmlns="http://www.w3.org/2000/svg"
   xmlns:svg="http://www.w3.org/2000/svg"><defs
   id="defs1" /><sodipodi:namedview
   id="namedview1"
   pagecolor="#505050"
   bordercolor="#ffffff"
   borderopacity="1"
   inkscape:showpageshadow="0"
   inkscape:pageopacity="0"
   inkscape:pagecheckerboard="1"
   inkscape:deskcolor="#505050"
   inkscape:zoom="1.3341116"
   inkscape:cx="430.62364"
   inkscape:cy="341.80049"
   inkscape:window-width="3008"
   inkscape:window-height="1639"
   inkscape:window-x="0"
   inkscape:window-y="25"
   inkscape:window-maximized="1"
   inkscape:current-layer="Layer_1" />

<g
   id="g9"
   inkscape:export-filename="g9.svg"
   inkscape:export-xdpi="96"
   inkscape:export-ydpi="96"
   transform="translate(-153.66249,-185.30862)"><path
     fill="#000000"
     opacity="1"
     stroke="none"
     d="m 604.71832,814.3139 c -11.50732,2.72345 -22.03326,-0.0337 -32.65338,-3.20507 -88.53622,-26.43915 -177.10858,-52.75715 -265.6756,-79.09302 -22.29559,-6.62964 -44.55038,-13.40698 -66.93132,-19.73657 -37.31906,-10.55439 -61.10656,-34.89551 -73.82257,-71.00318 -9.00775,-25.57794 -12.90361,-51.98938 -11.78634,-78.9173 1.25253,-30.18872 7.13633,-59.48837 23.35122,-85.64349 10.97203,-17.69818 23.65744,-34.23593 36.51673,-50.61264 36.40324,-46.36087 72.8065,-92.72174 109.20051,-139.08981 17.78165,-22.65482 35.48432,-45.372 53.3465,-67.96306 5.88538,-7.44344 11.91791,-14.80016 18.31546,-21.80155 8.28045,-9.06202 19.05017,-12.59219 31.09244,-11.84175 26.65152,1.66088 52.25445,9.11904 78.15145,14.79746 65.15259,14.28596 130.21497,28.9835 195.30848,43.53853 32.87457,7.3508 65.82483,14.38981 98.57647,22.25431 21.91864,5.26325 28.21405,21.17988 25.09095,40.97956 -1.65448,10.48898 -7.65143,19.04913 -13.05878,27.81686 -1.53803,2.49378 -2.44269,4.94443 -2.43341,7.93146 0.0772,24.83276 0.12597,49.66632 -0.0229,74.49841 -0.031,5.17591 1.94312,7.99896 6.9754,9.25922 6.60401,1.65384 12.99732,4.30341 19.66462,5.51874 15.50872,2.82693 21.76867,26.12506 14.35082,36.93017 -7.16387,10.43515 -13.92181,21.14856 -21.05438,31.60584 -40.36859,59.18545 -79.13177,119.43808 -119.02533,178.93905 -25.41986,37.91364 -50.85131,75.82007 -76.09033,113.85395 -6.72381,10.13226 -15.27759,17.4776 -27.38672,20.98388 m 4.40442,-187.7326 c -4.77667,7.22522 -11.58465,11.20233 -19.99725,12.86188 -9.81854,1.93695 -19.46484,1.44574 -29.07794,-1.23127 -81.75681,-22.76751 -163.50251,-45.57495 -245.29346,-68.21899 -25.43884,-7.04279 -50.57425,-15.23059 -76.41478,-20.77155 -12.84476,-2.75421 -18.06093,0.53449 -20.74547,13.24915 -4.34932,20.59936 -3.27617,41.04669 3.8064,60.88129 6.802,19.04882 18.40512,33.86364 38.73392,40.02923 22.26007,6.75116 44.48776,13.61078 66.78094,20.25073 55.5639,16.54963 111.13135,33.08845 166.74921,49.45551 27.40716,8.06525 54.54529,17.0896 82.3667,23.6958 9.15875,2.17481 16.9458,-0.94653 22.31048,-8.47723 12.84589,-18.0326 25.33393,-36.32056 37.93189,-54.52936 47.08722,-68.05866 93.42895,-136.62268 139.38061,-205.45227 3.46234,-5.18628 5.11578,-10.42237 5.13501,-16.74432 0.0825,-27.14203 -0.9928,-54.29957 0.79016,-81.42951 0.18805,-2.86142 0.76972,-5.93643 -0.86291,-8.8858 -1.91016,0.67358 -2.68262,2.16498 -3.60492,3.51855 -2.99957,4.40277 -6.01575,8.79425 -9.0318,13.18573 -29.97333,43.64179 -59.91016,87.30869 -89.93445,130.91541 -22.47906,32.64831 -44.9173,65.32751 -69.02234,97.69702 M 548.69421,314.02637 c -2.0946,-0.50446 -4.18914,-1.00882 -6.28375,-1.51346 -41.6207,-10.02701 -83.24051,-20.0578 -124.8631,-30.07697 -6.42276,-1.54605 -11.69259,0.11469 -15.76211,5.51584 -2.90354,3.8537 -6.008,7.55896 -9.09143,11.27344 -4.88044,5.87924 -3.7114,10.41711 3.52331,13.23669 1.23023,0.4795 2.55432,0.72632 3.8443,1.04294 10.63004,2.60919 21.26938,5.18079 31.89267,7.81714 67.14728,16.66382 134.28913,33.34943 201.44391,49.98273 2.51935,0.62402 5.03876,0.78598 7.78339,0.53439 10.55969,-0.96796 15.52612,-8.5245 20.67279,-16.21448 4.9812,-7.44278 2.21429,-14.31048 -6.78455,-16.24643 -0.97119,-0.20895 -1.93762,-0.44107 -2.90411,-0.6712 -34.22315,-8.15042 -68.44599,-16.30191 -103.47132,-24.68063 z"
     id="path1"
     inkscape:export-filename="path1.svg"
     inkscape:export-xdpi="96"
     inkscape:export-ydpi="96"
     style="fill:#2d708c;fill-opacity:1" /><path
     style="fill:#ececec;fill-opacity:1;stroke-width:0.749562"
     d="m 578.66223,756.92709 c -6.11547,-1.08599 -32.15079,-8.31759 -58.82534,-16.3394 -16.91106,-5.08563 -42.38434,-12.67917 -56.60728,-16.87454 C 327.29049,683.61502 258.93798,662.8769 252.22777,659.69527 245.10387,656.3175 238.44178,651.1269 233.89266,645.40995 220.783,628.9348 213.48273,601.33453 215.84139,577.1631 c 1.57003,-16.08957 4.25665,-24.23161 8.86572,-26.86833 5.55012,-3.17507 16.73887,-0.95161 65.37357,12.9912 14.22294,4.0775 46.09809,13.0221 70.83365,19.87688 24.73556,6.85478 80.55922,22.37506 124.05259,34.48949 51.09299,14.23121 81.33362,22.30202 85.45012,22.80547 9.54986,1.16796 21.31359,-0.42914 27.89614,-3.78731 4.77399,-2.4355 8.07667,-5.90075 16.70947,-17.5319 18.61848,-25.08511 35.02276,-48.62358 108.65504,-155.90899 29.9919,-43.6995 54.99207,-79.9395 55.55594,-80.53335 1.39965,-1.47408 1.96006,-0.68208 1.91965,2.71295 -0.0187,1.57528 -0.30396,23.27099 -0.63381,48.21268 l -0.59972,45.34853 -1.95208,4.12259 c -5.30624,11.20627 -175.64312,261.0561 -182.97623,268.38921 -3.94916,3.94916 -11.17812,6.3596 -16.32921,5.44487 z"
     id="path8" /><path
     style="fill:#ececec;fill-opacity:1;stroke-width:0.749562"
     d="M 515.69898,341.81941 C 450.35587,325.59154 395.7166,311.69659 394.27837,310.94175 c -3.3244,-1.74479 -4.80055,-4.62242 -3.76644,-7.34234 0.78467,-2.06384 11.23958,-15.29164 14.34811,-18.15357 2.1733,-2.0009 5.28253,-3.23557 8.14802,-3.23557 1.18263,0 30.92767,6.93613 66.10009,15.41362 35.17242,8.4775 89.41624,21.46556 120.54182,28.86236 31.12559,7.3968 57.69051,13.94844 59.03318,14.55919 3.34491,1.52154 5.60703,5.29297 5.12116,8.53804 -0.53993,3.60604 -4.61715,10.06479 -9.51191,15.06784 -4.83032,4.93719 -9.11471,6.7801 -15.61131,6.7151 -2.87691,-0.0288 -41.14429,-9.2227 -122.98211,-29.54701 z"
     id="path9" /></g></svg>
